<svg xmlns="http://www.w3.org/2000/svg" xmlns:xlink="http://www.w3.org/1999/xlink" width="500" zoomAndPan="magnify" viewBox="0 0 375 374.999991" height="500" preserveAspectRatio="xMidYMid meet" version="1.0"><defs><clipPath id="48ae35fb2e"><path d="M 211 37.5 L 332.871094 37.5 L 332.871094 128 L 211 128 Z M 211 37.5 " clip-rule="nonzero"/></clipPath><clipPath id="af3e0bc76b"><path d="M 54.621094 37.5 L 176 37.5 L 176 337.5 L 54.621094 337.5 Z M 54.621094 37.5 " clip-rule="nonzero"/></clipPath><clipPath id="ada70ebdec"><path d="M 211 169 L 332.871094 169 L 332.871094 337.5 L 211 337.5 Z M 211 169 " clip-rule="nonzero"/></clipPath><clipPath id="5aa362d834"><path d="M 296 197 L 332.871094 197 L 332.871094 337.5 L 296 337.5 Z M 296 197 " clip-rule="nonzero"/></clipPath><clipPath id="f3c3783d2c"><path d="M 174 169 L 297 169 L 297 216 L 174 216 Z M 174 169 " clip-rule="nonzero"/></clipPath><clipPath id="6665bec586"><path d="M 252.835938 91.339844 L 337.160156 175.664062 L 235.867188 276.957031 L 151.542969 192.632812 Z M 252.835938 91.339844 " clip-rule="nonzero"/></clipPath><clipPath id="731f2f3d46"><path d="M 252.835938 91.339844 L 337.160156 175.664062 L 235.867188 276.957031 L 151.542969 192.632812 Z M 252.835938 91.339844 " clip-rule="nonzero"/></clipPath><clipPath id="4c7bca4bf0"><path d="M 195 147 L 277 147 L 277 190 L 195 190 Z M 195 147 " clip-rule="nonzero"/></clipPath><clipPath id="526a087b5b"><path d="M 252.835938 91.339844 L 337.160156 175.664062 L 235.867188 276.957031 L 151.542969 192.632812 Z M 252.835938 91.339844 " clip-rule="nonzero"/></clipPath><clipPath id="83fe7c6ea4"><path d="M 252.835938 91.339844 L 337.160156 175.664062 L 235.867188 276.957031 L 151.542969 192.632812 Z M 252.835938 91.339844 " clip-rule="nonzero"/></clipPath><clipPath id="0ec5431a66"><path d="M 258 142 L 309 142 L 309 163 L 258 163 Z M 258 142 " clip-rule="nonzero"/></clipPath><clipPath id="fc3a63710c"><path d="M 252.835938 91.339844 L 337.160156 175.664062 L 235.867188 276.957031 L 151.542969 192.632812 Z M 252.835938 91.339844 " clip-rule="nonzero"/></clipPath><clipPath id="3e9f1de5eb"><path d="M 252.835938 91.339844 L 337.160156 175.664062 L 235.867188 276.957031 L 151.542969 192.632812 Z M 252.835938 91.339844 " clip-rule="nonzero"/></clipPath><clipPath id="6468198200"><path d="M 258 142 L 303 142 L 303 155 L 258 155 Z M 258 142 " clip-rule="nonzero"/></clipPath><clipPath id="f381bbb97c"><path d="M 252.835938 91.339844 L 337.160156 175.664062 L 235.867188 276.957031 L 151.542969 192.632812 Z M 252.835938 91.339844 " clip-rule="nonzero"/></clipPath><clipPath id="d6e8a79caf"><path d="M 252.835938 91.339844 L 337.160156 175.664062 L 235.867188 276.957031 L 151.542969 192.632812 Z M 252.835938 91.339844 " clip-rule="nonzero"/></clipPath></defs><rect x="-37.5" width="450" fill="#ffffff" y="-37.499999" height="449.999989" fill-opacity="1"/><rect x="-37.5" width="450" fill="#ffffff" y="-37.499999" height="449.999989" fill-opacity="1"/><g clip-path="url(#48ae35fb2e)"><path fill="#02999f" d="M 211.628906 78.765625 L 296.976562 127.980469 L 332.765625 107.335938 L 211.628906 37.5 Z M 211.628906 78.765625 " fill-opacity="1" fill-rule="evenodd"/></g><g clip-path="url(#af3e0bc76b)"><path fill="#02999f" d="M 175.84375 296.234375 L 90.496094 247.019531 L 90.496094 127.980469 L 175.84375 78.765625 L 175.84375 37.5 L 54.710938 107.335938 L 54.710938 267.664062 L 175.84375 337.5 Z M 175.84375 296.234375 " fill-opacity="1" fill-rule="evenodd"/></g><g clip-path="url(#ada70ebdec)"><path fill="#02999f" d="M 296.976562 247.019531 L 211.628906 296.234375 L 211.628906 337.5 L 332.765625 267.664062 L 332.765625 169.632812 L 211.628906 169.632812 L 211.628906 205.371094 L 296.976562 205.371094 Z M 296.976562 247.019531 " fill-opacity="1" fill-rule="evenodd"/></g><g clip-path="url(#5aa362d834)"><path fill="#02999f" d="M 296.980469 218.453125 L 296.972656 316.871094 L 332.773438 337.5 L 332.765625 197.820312 Z M 296.980469 218.453125 " fill-opacity="1" fill-rule="evenodd"/></g><g clip-path="url(#f3c3783d2c)"><g clip-path="url(#6665bec586)"><g clip-path="url(#731f2f3d46)"><path fill="#000000" d="M 174.925781 169.449219 L 296.726562 169.449219 L 296.722656 215.605469 L 282.074219 215.597656 L 282.074219 205.886719 L 269.933594 205.886719 L 269.929688 215.601562 L 255.285156 215.605469 L 255.292969 205.886719 L 243.140625 205.886719 L 243.148438 215.605469 L 228.503906 215.601562 L 228.496094 205.886719 L 216.355469 205.886719 L 216.355469 215.597656 L 201.710938 215.605469 L 201.714844 205.886719 L 189.574219 205.886719 L 189.570312 215.601562 L 174.925781 215.605469 Z M 174.925781 169.449219 " fill-opacity="1" fill-rule="evenodd"/></g></g></g><g clip-path="url(#4c7bca4bf0)"><g clip-path="url(#526a087b5b)"><g clip-path="url(#83fe7c6ea4)"><path fill="#bdbdbd" d="M 240.320312 147.933594 C 246.457031 147.933594 252.574219 147.933594 258.710938 147.933594 L 258.710938 157.355469 L 243.839844 157.347656 L 241.535156 182.089844 L 276.003906 182.089844 L 271.53125 189.964844 L 195.644531 189.964844 L 199.753906 182.089844 L 232.113281 182.089844 L 235.015625 152.644531 C 235.277344 150.042969 237.742188 147.933594 240.320312 147.933594 Z M 240.320312 147.933594 " fill-opacity="1" fill-rule="evenodd"/></g></g></g><g clip-path="url(#0ec5431a66)"><g clip-path="url(#fc3a63710c)"><g clip-path="url(#3e9f1de5eb)"><path fill="#03466e" d="M 308.460938 152.644531 C 308.460938 158.296875 303.832031 162.921875 298.179688 162.921875 L 264.277344 162.921875 C 261.214844 162.921875 258.699219 160.421875 258.707031 157.355469 L 258.707031 147.933594 C 258.699219 144.867188 261.210938 142.355469 264.285156 142.355469 L 298.171875 142.355469 C 303.839844 142.355469 308.46875 146.984375 308.460938 152.644531 Z M 308.460938 152.644531 " fill-opacity="1" fill-rule="evenodd"/></g></g></g><g clip-path="url(#6468198200)"><g clip-path="url(#f381bbb97c)"><g clip-path="url(#d6e8a79caf)"><path fill="#7dc6a0" d="M 258.699219 154.667969 L 258.707031 147.933594 C 258.699219 144.867188 261.210938 142.355469 264.285156 142.355469 L 298.171875 142.355469 C 299.578125 142.355469 300.910156 142.640625 302.132812 143.152344 C 302.183594 143.554688 302.207031 143.960938 302.207031 144.378906 C 302.203125 150.039062 297.574219 154.667969 291.921875 154.667969 Z M 258.699219 154.667969 " fill-opacity="1" fill-rule="evenodd"/></g></g></g></svg>